<?xml version="1.0" encoding="utf-8"?>
<!-- Svg Vector Icons : http://www.onlinewebfonts.com/icon -->
<!DOCTYPE svg PUBLIC "-//W3C//DTD SVG 1.1//EN" "http://www.w3.org/Graphics/SVG/1.1/DTD/svg11.dtd">
<svg version="1.1" xmlns="http://www.w3.org/2000/svg" xmlns:xlink="http://www.w3.org/1999/xlink" x="0px" y="0px" viewBox="0 0 1000 1000" enable-background="new 0 0 1000 1000" xml:space="preserve">
<metadata> Svg Vector Icons : http://www.onlinewebfonts.com/icon </metadata>
<g><path d="M871.8,990H128.3c-37.3,0-67.6-30.3-67.6-67.6V178.9c0-37.4,30.3-67.6,67.6-67.6h67.6v33.8c0,56,45.4,101.4,101.4,101.4c55.9,0,101.4-45.4,101.4-101.4v-33.7h202.8v33.8c0,56,45.4,101.4,101.4,101.4c55.9,0,101.4-45.4,101.4-101.4v-33.8h67.6c37.3,0,67.6,30.3,67.6,67.6v743.4C939.3,959.7,909.1,990,871.8,990L871.8,990z M876.3,293.8H123.8v632.3h752.5V293.8L876.3,293.8z M297.3,486.4H195.9V385h101.4V486.4L297.3,486.4z M297.3,655.4H195.9V553.9h101.4V655.4L297.3,655.4z M297.3,824.3H195.9V723h101.4V824.3L297.3,824.3z M466.2,486.4H364.9V385h101.4V486.4L466.2,486.4z M466.2,655.4H364.9V553.9h101.4V655.4L466.2,655.4z M466.2,824.3H364.9V723h101.4V824.3L466.2,824.3z M635.2,486.4H533.8V385h101.4V486.4L635.2,486.4z M635.2,655.4H533.8V553.9h101.4V655.4L635.2,655.4z M635.2,824.3H533.8V723h101.4V824.3L635.2,824.3z M804.2,486.4H702.8V385h101.4L804.2,486.4L804.2,486.4z M804.2,655.4H702.8V553.9h101.4L804.2,655.4L804.2,655.4z M804.2,824.3H702.8V723h101.4V824.3L804.2,824.3z M701.7,212.7c-36.8,0-66.5-29.8-66.5-66.5V76.5c0-36.8,29.7-66.5,66.5-66.5c36.8,0,66.5,29.7,66.5,66.5v69.7C768.3,182.9,738.5,212.7,701.7,212.7L701.7,212.7z M296.2,212.7c-36.8,0-66.5-29.8-66.5-66.5V76.5c0-36.8,29.7-66.5,66.5-66.5c36.8,0,66.5,29.7,66.5,66.5v69.7C362.8,182.9,333,212.7,296.2,212.7L296.2,212.7z"/></g>
</svg>